Torque
version=1
nRows=21
nColumns=28
inDegrees=yes
endheader
time	lumbar_ext	lumbar_bend	lumbar_rot	shoulder_flex_r	shoulder_add_r	shoulder_rot_r	elbow_flex_r	pro_sup_r	wrist_flex_r	wrist_dev_r	shoulder_flex_l	shoulder_add_l	shoulder_rot_l	elbow_flex_l	pro_sup_l	wrist_flex_l	wrist_dev_l	hip_flexion_r	hip_adduction_r	hip_rotation_r	knee_angle_r	ankle_angle_r	hip_flexion_l	hip_adduction_l	hip_rotation_l	knee_angle_l	ankle_angle_l
3.810000	39.960420	2.348179	4.604758	10.691889	-0.390724	-9.748587	4.478517	23.818724	-3.507631	-0.618224	7.132166	-2.007910	-0.607582	3.789885	3.272637	-4.329265	-0.521225	-22.330196	14.569900	-3.722051	85.861945	-42.677622	-3.530944	10.605992	-93.322232	140.269750	-25.663279
3.820000	41.833029	1.964799	4.433512	10.850156	-0.729407	-8.482281	4.421808	24.452414	-3.645846	-0.675079	7.212518	-2.112147	-0.335940	3.802851	3.081374	-4.394618	-0.635032	-23.205340	15.397211	-2.417914	84.289491	-43.753300	-5.112413	14.012976	-92.652538	136.391062	-27.094346
3.830000	43.574514	1.509049	4.110603	10.870367	-1.132257	-6.950213	4.380388	25.148906	-3.756003	-0.742574	7.695302	-2.282490	-0.042496	3.958190	2.857250	-4.433338	-0.726420	-23.493689	16.063448	-1.244314	83.863619	-42.488094	-6.226766	16.813305	-92.033467	132.970011	-27.658135
3.840000	44.661441	1.056418	3.676493	10.976600	-1.500597	-5.076786	4.337009	25.818970	-3.852851	-0.787880	8.540351	-2.338606	0.038919	4.198862	2.686993	-4.451612	-0.818151	-23.447511	16.508731	-0.633756	84.680539	-39.156612	-7.170375	18.286135	-91.721660	130.597275	-26.905321
3.850000	45.073819	0.615064	3.194216	11.172094	-1.861311	-2.967160	4.277245	26.371088	-3.948900	-0.820101	9.542750	-2.224014	0.023763	4.419338	2.548546	-4.454875	-0.920363	-22.707127	16.677047	-0.623640	87.076718	-33.937778	-7.532247	18.448447	-91.989166	129.677403	-24.554348
3.860000	44.796400	0.119243	2.682880	11.389186	-2.345363	-0.593885	4.319082	26.828416	-4.043671	-0.840578	10.465132	-2.026808	-0.024349	4.476195	2.471478	-4.444089	-1.021228	-21.472469	16.370353	-1.395228	90.807018	-27.532827	-7.456128	17.545895	-92.964265	129.847884	-20.659208
3.870000	43.995323	-0.429125	2.122030	11.670263	-2.957274	1.868708	4.327353	27.385850	-4.132000	-0.859133	11.252685	-1.791048	-0.135537	4.408274	2.295099	-4.424635	-1.100546	-20.235899	15.725651	-2.525623	95.025855	-20.997142	-7.262084	15.739484	-94.559786	130.449039	-15.765056
3.880000	43.432331	-0.998273	1.581698	11.981222	-2.851725	1.762096	4.155075	28.191812	-4.220530	-0.886524	12.020504	-1.627393	-0.123813	3.939642	1.942558	-4.366006	-1.122126	-18.752072	14.722287	-4.481414	99.313894	-15.023805	-7.121584	14.125197	-96.920764	130.749232	-10.078802
3.890000	42.766991	-1.650100	0.859345	11.751533	-3.271327	1.171124	4.014392	29.434204	-4.288423	-0.920973	12.218630	-1.473038	-0.046965	3.772763	1.326483	-4.299857	-1.008489	-17.731076	13.643745	-6.456635	102.850914	-10.251282	-7.102683	12.077081	-99.666050	130.005437	-4.625864
3.900000	42.078104	-2.443625	-0.109972	11.186846	-3.899160	1.050980	3.611897	30.954402	-4.282413	-0.980741	12.154335	-1.258082	0.134015	3.511762	0.509454	-4.270895	-0.750472	-16.716146	12.433435	-8.307211	105.883151	-6.437259	-6.934502	9.894841	-102.715364	128.009480	0.132881
3.910000	41.311684	-3.291021	-1.304828	10.547034	-4.251516	1.328585	3.102455	32.450873	-4.167040	-1.105173	11.849141	-1.069427	0.518556	3.059836	-0.459921	-4.316492	-0.333927	-15.449379	11.321958	-10.000218	108.220464	-3.585959	-6.862680	7.049207	-106.045836	124.426639	4.241418
3.920000	40.121403	-4.179006	-2.593852	10.096444	-4.226409	1.584553	2.756880	33.634491	-3.920120	-1.328564	11.451863	-0.984062	0.786423	2.662714	-1.063676	-4.496648	0.249852	-14.062960	9.653350	-11.363374	109.579861	-1.711188	-7.148414	3.732455	-109.481612	118.977499	7.789813
3.930000	38.727312	-4.884545	-3.719400	9.517794	-3.900679	1.763877	2.518611	34.300700	-3.533858	-1.730183	10.684241	-1.096145	1.241796	2.260808	-0.799950	-4.825365	0.975823	-12.018199	7.657097	-12.103901	109.172291	-0.539021	-7.084229	-0.161023	-112.531999	110.696036	10.633875
3.940000	36.896589	-5.094783	-4.452535	8.973465	-2.921911	1.966588	2.245087	34.490570	-2.953761	-2.286608	9.839447	-1.401632	1.410629	2.109756	-0.509017	-5.218983	1.723858	-9.878103	4.924700	-12.021970	104.286826	-0.852974	-7.274060	-3.579483	-114.716908	98.219991	12.225274
3.950000	34.679034	-4.768468	-4.732492	8.063206	-1.755030	2.322567	2.038109	34.152333	-2.222065	-2.973939	9.253842	-1.625328	1.295355	2.159906	-0.057399	-5.578763	2.433426	-7.533349	1.450813	-11.150214	92.770082	-2.569018	-7.339538	-6.591467	-115.638775	80.047211	12.484070
3.960000	32.491233	-3.976239	-4.726998	6.705475	-0.788718	2.816392	1.733345	33.202153	-1.389958	-3.696464	9.039521	-1.790670	1.139816	2.333216	0.319823	-5.800949	3.177520	-5.289911	-2.521571	-9.327346	73.428462	-4.918618	-7.383214	-9.954394	-114.756748	54.945999	11.359043
3.970000	30.303302	-2.881349	-4.766459	5.934379	0.184059	2.979859	1.447863	31.628970	-0.481266	-4.373768	9.450763	-1.679309	0.395017	2.787925	0.527844	-5.890838	3.731637	-2.854667	-7.952662	-7.000300	48.047572	-6.473480	-7.811477	-12.616715	-112.621370	25.386907	8.603636
3.980000	28.183897	-1.291164	-5.015182	4.950525	0.156721	2.818694	1.546035	29.735342	0.410431	-4.926237	9.507189	-1.949967	0.077073	3.253730	0.228177	-5.860476	4.167501	-0.240523	-13.526651	-4.619791	21.887767	-6.044624	-8.063768	-15.552703	-109.670234	-4.096044	5.054405
3.990000	26.071024	0.424961	-5.288249	4.515988	-0.735405	2.582613	1.709501	27.898058	1.220804	-5.289824	9.394826	-2.282909	-0.159348	3.426444	-0.262611	-5.744565	4.509972	2.311148	-19.612757	-2.740253	-1.746556	-4.237523	-8.675147	-19.157040	-106.528142	-30.018876	1.633663
4.000000	26.762099	6.828154	-6.938951	7.725309	-2.491398	2.534202	1.401254	26.223011	1.709907	-5.603550	8.311957	-1.881507	-0.994603	4.163960	-0.734487	-5.383919	4.914718	4.359044	-16.290970	-5.053283	-26.537253	-3.754658	-7.493456	-22.841379	-101.421207	-30.562766	5.499015
4.010000	29.238672	12.341708	-7.439890	10.578127	-2.517193	1.896594	1.763011	24.839602	2.396712	-5.525682	8.789469	-3.506847	-0.698710	4.388396	-0.434336	-4.822451	5.750233	6.144162	-18.799774	-8.301885	-25.189604	6.088624	-7.016561	-19.321935	-97.951350	-16.840562	15.448865
